# xmcd
#
# Track frame offsets:
#	150
#	10892
#	24935
#	39365
#	53729
#	68478
#	80145
#	91125
#	106478
#	120917
#	134658
#	147202
#
# Disc length: 2016 seconds
#
# Revision: 2
# Processed by: cddbd v1.5.2PL0 Copyright (c) Steve Scherf et al.
# Submitted via: audiograbber 1.83.01
#
DISCID=9307de0c
DTITLE=Various Artist - Frog Trouble by Sandra Boynton
DYEAR=2013
DGENRE=Country
TTITLE0=Dwight Yoakam - I've Got a Dog
TTITLE1=Fountains Of Wayne - Trucks
TTITLE2=Mark Kanegan - Frog Trouble
TTITLE3=Kacey Musgraves - Heartache Song
TTITLE4=Ryan Adams - When Pigs Fly
TTITLE5=Ben Folds - Broken Piano
TTITLE6=Brad Paisley - Copycat
TTITLE7=Alison Krauss - End of A Summer Storm
TTITLE8=Josh Turner - Alligator Stroll
TTITLE9=Darius Rucker - Beautiful Baby
TTITLE10=Linda Eder - Deepest Blue
TTITLE11=Falls Mountain Cowboys - More Frog Trouble
EXTD=
EXTT0=
EXTT1=
EXTT2=
EXTT3=
EXTT4=
EXTT5=
EXTT6=
EXTT7=
EXTT8=
EXTT9=
EXTT10=
EXTT11=
PLAYORDER=
